<mxfile host="app.diagrams.net" modified="2024-02-20T12:12:36.387Z" agent="Mozilla/5.0 (Windows NT 10.0; Win64; x64) AppleWebKit/537.36 (KHTML, like Gecko) Chrome/121.0.0.0 Safari/537.36" etag="Q0u5qHdTbORfJFSW097B" version="23.1.5" type="device">
  <diagram name="Страница — 1" id="H2Dl1OZfj5ackVgs5a-y">
    <mxGraphModel dx="1195" dy="417" grid="1" gridSize="10" guides="1" tooltips="1" connect="1" arrows="1" fold="1" page="1" pageScale="1" pageWidth="1169" pageHeight="827" math="0" shadow="0">
      <root>
        <mxCell id="0" />
        <mxCell id="1" parent="0" />
        <mxCell id="aB2iMWEAbySdkc-dba3m-17" style="edgeStyle=orthogonalEdgeStyle;rounded=0;orthogonalLoop=1;jettySize=auto;html=1;entryX=0.5;entryY=0;entryDx=0;entryDy=0;" edge="1" parent="1" source="aB2iMWEAbySdkc-dba3m-1" target="aB2iMWEAbySdkc-dba3m-2">
          <mxGeometry relative="1" as="geometry" />
        </mxCell>
        <mxCell id="aB2iMWEAbySdkc-dba3m-18" style="edgeStyle=orthogonalEdgeStyle;rounded=0;orthogonalLoop=1;jettySize=auto;html=1;entryX=0.5;entryY=0;entryDx=0;entryDy=0;" edge="1" parent="1" source="aB2iMWEAbySdkc-dba3m-1" target="aB2iMWEAbySdkc-dba3m-3">
          <mxGeometry relative="1" as="geometry" />
        </mxCell>
        <mxCell id="aB2iMWEAbySdkc-dba3m-1" value="abstract class&lt;br&gt;Animals" style="rounded=0;whiteSpace=wrap;html=1;" vertex="1" parent="1">
          <mxGeometry x="425" y="10" width="160" height="50" as="geometry" />
        </mxCell>
        <mxCell id="aB2iMWEAbySdkc-dba3m-19" style="edgeStyle=orthogonalEdgeStyle;rounded=0;orthogonalLoop=1;jettySize=auto;html=1;entryX=0.5;entryY=0;entryDx=0;entryDy=0;" edge="1" parent="1" source="aB2iMWEAbySdkc-dba3m-2" target="aB2iMWEAbySdkc-dba3m-8">
          <mxGeometry relative="1" as="geometry" />
        </mxCell>
        <mxCell id="aB2iMWEAbySdkc-dba3m-20" style="edgeStyle=orthogonalEdgeStyle;rounded=0;orthogonalLoop=1;jettySize=auto;html=1;entryX=0.5;entryY=0;entryDx=0;entryDy=0;" edge="1" parent="1" source="aB2iMWEAbySdkc-dba3m-2" target="aB2iMWEAbySdkc-dba3m-9">
          <mxGeometry relative="1" as="geometry" />
        </mxCell>
        <mxCell id="aB2iMWEAbySdkc-dba3m-21" style="edgeStyle=orthogonalEdgeStyle;rounded=0;orthogonalLoop=1;jettySize=auto;html=1;entryX=0.5;entryY=0;entryDx=0;entryDy=0;" edge="1" parent="1" source="aB2iMWEAbySdkc-dba3m-2" target="aB2iMWEAbySdkc-dba3m-10">
          <mxGeometry relative="1" as="geometry" />
        </mxCell>
        <mxCell id="aB2iMWEAbySdkc-dba3m-2" value="abstract class&lt;br&gt;Pets" style="rounded=0;whiteSpace=wrap;html=1;" vertex="1" parent="1">
          <mxGeometry x="200" y="80" width="120" height="60" as="geometry" />
        </mxCell>
        <mxCell id="aB2iMWEAbySdkc-dba3m-22" style="edgeStyle=orthogonalEdgeStyle;rounded=0;orthogonalLoop=1;jettySize=auto;html=1;entryX=0.5;entryY=0;entryDx=0;entryDy=0;" edge="1" parent="1" source="aB2iMWEAbySdkc-dba3m-3" target="aB2iMWEAbySdkc-dba3m-14">
          <mxGeometry relative="1" as="geometry" />
        </mxCell>
        <mxCell id="aB2iMWEAbySdkc-dba3m-23" style="edgeStyle=orthogonalEdgeStyle;rounded=0;orthogonalLoop=1;jettySize=auto;html=1;entryX=0.5;entryY=0;entryDx=0;entryDy=0;" edge="1" parent="1" source="aB2iMWEAbySdkc-dba3m-3" target="aB2iMWEAbySdkc-dba3m-15">
          <mxGeometry relative="1" as="geometry" />
        </mxCell>
        <mxCell id="aB2iMWEAbySdkc-dba3m-24" style="edgeStyle=orthogonalEdgeStyle;rounded=0;orthogonalLoop=1;jettySize=auto;html=1;entryX=0.5;entryY=0;entryDx=0;entryDy=0;" edge="1" parent="1" source="aB2iMWEAbySdkc-dba3m-3" target="aB2iMWEAbySdkc-dba3m-16">
          <mxGeometry relative="1" as="geometry" />
        </mxCell>
        <mxCell id="aB2iMWEAbySdkc-dba3m-3" value="abstract class&lt;br&gt;PackAnimals" style="rounded=0;whiteSpace=wrap;html=1;" vertex="1" parent="1">
          <mxGeometry x="680" y="80" width="120" height="60" as="geometry" />
        </mxCell>
        <mxCell id="aB2iMWEAbySdkc-dba3m-8" value="Dogs" style="rounded=0;whiteSpace=wrap;html=1;" vertex="1" parent="1">
          <mxGeometry x="40" y="180" width="120" height="60" as="geometry" />
        </mxCell>
        <mxCell id="aB2iMWEAbySdkc-dba3m-9" value="Cats" style="rounded=0;whiteSpace=wrap;html=1;" vertex="1" parent="1">
          <mxGeometry x="200" y="180" width="120" height="60" as="geometry" />
        </mxCell>
        <mxCell id="aB2iMWEAbySdkc-dba3m-10" value="Hamsters" style="rounded=0;whiteSpace=wrap;html=1;" vertex="1" parent="1">
          <mxGeometry x="360" y="180" width="120" height="60" as="geometry" />
        </mxCell>
        <mxCell id="aB2iMWEAbySdkc-dba3m-14" value="Horses" style="rounded=0;whiteSpace=wrap;html=1;" vertex="1" parent="1">
          <mxGeometry x="520" y="180" width="120" height="60" as="geometry" />
        </mxCell>
        <mxCell id="aB2iMWEAbySdkc-dba3m-15" value="Camels" style="rounded=0;whiteSpace=wrap;html=1;" vertex="1" parent="1">
          <mxGeometry x="680" y="180" width="120" height="60" as="geometry" />
        </mxCell>
        <mxCell id="aB2iMWEAbySdkc-dba3m-16" value="Donkeys" style="rounded=0;whiteSpace=wrap;html=1;" vertex="1" parent="1">
          <mxGeometry x="840" y="180" width="120" height="60" as="geometry" />
        </mxCell>
      </root>
    </mxGraphModel>
  </diagram>
</mxfile>
